<svg width="123" height="128" viewBox="0 0 123 128" fill="none" xmlns="http://www.w3.org/2000/svg">
<g filter="url(#filter0_d)">
<path d="M34.6698 57.6587C33.6081 57.6587 32.5463 57.7183 31.4904 57.8356C19.2027 59.2055 7.47063 71.3277 6.10613 84.08C4.29128 100.443 15.6076 115.233 31.3795 117.116C37.8089 117.884 44.2979 116.377 49.7998 112.842C52.5863 110.961 55.7654 109.802 59.0732 109.462C59.8704 109.388 60.6792 109.352 61.4995 109.352C62.2775 109.352 63.0497 109.38 63.8145 109.438C67.172 109.766 70.403 110.937 73.2277 112.85C86.7382 121.5 104.449 117.15 112.788 103.133C116.178 97.4349 117.621 90.7188 116.883 84.0681C115.52 71.3256 103.786 59.2055 91.4984 57.8356C90.4463 57.7183 89.3884 57.6587 88.3287 57.6587H34.6698Z" fill="#FFD33F"/>
<path d="M74.9068 93.438C78.0819 93.438 80.6559 90.7675 80.6559 87.4734C80.6559 84.1792 78.0819 81.5088 74.9068 81.5088C71.7317 81.5088 69.1577 84.1792 69.1577 87.4734C69.1577 90.7675 71.7317 93.438 74.9068 93.438Z" fill="#EA3836"/>
<path d="M111.493 70.5195C88.4271 97.3386 36.4797 107.319 16.1909 110.284C25.6751 118.602 39.2469 119.63 49.7948 112.831C52.5814 110.95 55.7605 109.791 59.0683 109.451C59.8693 109.385 60.6819 109.351 61.5002 109.351C62.2782 109.351 63.0504 109.379 63.8152 109.437C67.1727 109.765 70.4037 110.936 73.2284 112.849C86.739 121.499 104.45 117.149 112.788 103.132C116.178 97.4341 117.622 90.718 116.884 84.0674C116.266 79.1386 114.406 74.4663 111.493 70.5195Z" fill="#FFAC3E"/>
<path d="M30.8377 73.5645H38.5032V83.5054H48.0853V91.4585H38.5032V101.399H30.8377V91.4585H21.2559V83.5054H30.8377V73.5645Z" fill="#383856"/>
<path d="M88.3229 81.5091C91.498 81.5091 94.072 78.8387 94.072 75.5446C94.072 72.2505 91.498 69.5801 88.3229 69.5801C85.1477 69.5801 82.5737 72.2505 82.5737 75.5446C82.5737 78.8387 85.1477 81.5091 88.3229 81.5091Z" fill="#91CECE"/>
<path d="M88.3219 105.368C91.4971 105.368 94.071 102.698 94.071 99.4035C94.071 96.1094 91.4971 93.439 88.3219 93.439C85.1467 93.439 82.5728 96.1094 82.5728 99.4035C82.5728 102.698 85.1467 105.368 88.3219 105.368Z" fill="#91CECE"/>
<path d="M101.736 93.438C104.912 93.438 107.486 90.7675 107.486 87.4734C107.486 84.1792 104.912 81.5088 101.736 81.5088C98.5613 81.5088 95.9873 84.1792 95.9873 87.4734C95.9873 90.7675 98.5613 93.438 101.736 93.438Z" fill="#EA3836"/>
<path d="M57.667 57.6587V49.7056H65.3325V57.6587" fill="#874D1B"/>
<path d="M77.8922 82.4038C78.4479 83.3322 78.743 84.402 78.7468 85.4936C78.7468 88.7881 76.173 91.4582 72.9977 91.4582C71.9456 91.4543 70.9146 91.148 70.0195 90.5715C71.6561 93.3828 75.1822 94.2856 77.8922 92.5875C80.6021 90.8894 81.472 87.2313 79.8355 84.4198C79.3564 83.5946 78.6875 82.9027 77.8922 82.4038Z" fill="#D62121"/>
<path d="M91.3072 70.4736C91.8629 71.402 92.158 72.4719 92.1618 73.5634C92.1618 76.858 89.588 79.5281 86.4127 79.5281C85.3606 79.5241 84.3296 79.2179 83.4346 78.6414C85.0711 81.4527 88.5973 82.3555 91.3072 80.6574C94.0169 78.9595 94.8871 75.3011 93.2503 72.4896C92.7712 71.6647 92.1025 70.9728 91.3072 70.4736Z" fill="#83B2B7"/>
<path d="M104.722 82.4038C105.278 83.3322 105.573 84.402 105.577 85.4936C105.577 88.7881 103.003 91.4582 99.8277 91.4582C98.7756 91.4543 97.7447 91.148 96.8496 90.5715C98.4861 93.3828 102.012 94.2856 104.722 92.5875C107.432 90.8894 108.302 87.2313 106.665 84.4198C106.186 83.5946 105.518 82.9027 104.722 82.4038Z" fill="#D62121"/>
<path d="M91.3072 94.3325C91.8629 95.2609 92.158 96.3308 92.1618 97.4223C92.1618 100.717 89.588 103.387 86.4127 103.387C85.3606 103.383 84.3296 103.077 83.4346 102.5C85.0711 105.312 88.5973 106.214 91.3072 104.516C94.0169 102.818 94.8871 99.16 93.2503 96.3485C92.7712 95.5235 92.1025 94.8314 91.3072 94.3325Z" fill="#83B2B7"/>
<path d="M21.2559 89.5152V91.4578H30.8377V101.399H38.5032V91.4578H48.0851V83.5049H44.8866C37.3171 88.9804 25.7748 89.529 21.2559 89.5152Z" fill="#202033"/>
<path d="M57.667 57.1155V57.6583H65.3325V51.127C63.5062 53.9683 60.8041 56.0797 57.667 57.1155Z" fill="#6B3713"/>
<path d="M48.0847 81.5162H40.4192V73.5634C40.4192 72.4658 39.5607 71.5752 38.5028 71.5752H30.8373C29.7794 71.5752 28.9209 72.4658 28.9209 73.5634V81.5162H21.2552C20.1973 81.5162 19.3389 82.4068 19.3389 83.5044V91.4571C19.3389 92.5547 20.1973 93.4453 21.2552 93.4453H28.9207V101.398C28.9207 102.496 29.7792 103.386 30.8371 103.386H38.5026C39.5605 103.386 40.4189 102.496 40.4189 101.398V93.4456H48.0844C49.1423 93.4456 50.0008 92.5549 50.0008 91.4574V83.5046C50.001 82.407 49.1423 81.5162 48.0847 81.5162ZM46.1683 89.4692H38.5028C37.4449 89.4692 36.5864 90.3598 36.5864 91.4574V99.4102H32.7537V91.4574C32.7537 90.3598 31.8952 89.4692 30.8373 89.4692H23.1716V85.4928H30.8371C31.895 85.4928 32.7535 84.6022 32.7535 83.5046V75.5518H36.5862V83.5046C36.5862 84.6022 37.4447 85.4928 38.5026 85.4928H46.1681V89.4692H46.1683Z" fill="black"/>
<path d="M88.3296 83.5056C92.5628 83.5056 95.9951 79.9447 95.9951 75.5529C95.9951 71.161 92.5628 67.6001 88.3296 67.6001C84.0963 67.6001 80.6641 71.161 80.6641 75.5529C80.6641 79.9447 84.0963 83.5056 88.3296 83.5056ZM88.3296 71.5765C90.4472 71.5765 92.1623 73.3559 92.1623 75.5529C92.1623 77.7498 90.4472 79.5292 88.3296 79.5292C86.212 79.5292 84.4968 77.7498 84.4968 75.5529C84.4968 73.3559 86.214 71.5765 88.3296 71.5765Z" fill="black"/>
<path d="M88.3296 91.4575C84.0963 91.4575 80.6641 95.0184 80.6641 99.4103C80.6641 103.802 84.0963 107.363 88.3296 107.363C92.5628 107.363 95.9951 103.802 95.9951 99.4103C95.9951 95.0182 92.5628 91.4575 88.3296 91.4575ZM88.3296 103.387C86.212 103.387 84.4968 101.607 84.4968 99.4103C84.4968 97.2133 86.212 95.4339 88.3296 95.4339C90.4472 95.4339 92.1623 97.2133 92.1623 99.4103C92.1623 101.607 90.4472 103.387 88.3296 103.387Z" fill="black"/>
<path d="M74.9145 79.5273C70.6813 79.5273 67.249 83.0883 67.249 87.4801C67.249 91.872 70.6813 95.4329 74.9145 95.4329C79.1478 95.4329 82.5801 91.872 82.5801 87.4801C82.5801 83.0883 79.1478 79.5273 74.9145 79.5273ZM74.9145 91.4568C72.7969 91.4568 71.0818 89.6774 71.0818 87.4804C71.0818 85.2834 72.7969 83.504 74.9145 83.504C77.0322 83.504 78.7473 85.2834 78.7473 87.4804C78.7473 89.6774 77.032 91.4568 74.9145 91.4568Z" fill="black"/>
<path d="M101.744 79.5273C97.5104 79.5273 94.0781 83.0883 94.0781 87.4801C94.0781 91.872 97.5104 95.4329 101.744 95.4329C105.977 95.4329 109.409 91.872 109.409 87.4801C109.409 83.0883 105.977 79.5273 101.744 79.5273ZM101.744 91.4568C99.626 91.4568 97.9109 89.6774 97.9109 87.4804C97.9109 85.2834 99.626 83.504 101.744 83.504C103.861 83.504 105.576 85.2834 105.576 87.4804C105.576 89.6774 103.861 91.4568 101.744 91.4568Z" fill="black"/>
<path d="M91.7097 55.8689C90.5867 55.7396 89.458 55.6741 88.3291 55.6701H67.2487V47.7173H63.4162V43.7409C63.4162 39.349 59.984 35.7881 55.7507 35.7881H46.1689C44.0512 35.7881 42.3361 34.0087 42.3361 31.8117C42.3361 29.6147 44.0512 27.8353 46.1689 27.8353H76.8311C81.0643 27.8353 84.4966 24.2744 84.4966 19.8825C84.4966 15.4906 81.0643 11.9297 76.8311 11.9297H67.2492C65.1316 11.9297 63.4164 10.1503 63.4164 7.95328V0H59.5837V7.95281C59.5837 12.3447 63.016 15.9056 67.2492 15.9056H76.8311C78.9487 15.9056 80.6638 17.685 80.6638 19.882C80.6638 22.079 78.9487 23.8584 76.8311 23.8584H46.1689C41.9356 23.8584 38.5034 27.4193 38.5034 31.8112C38.5034 36.2031 41.9356 39.764 46.1689 39.764H55.7507C57.8683 39.764 59.5835 41.5435 59.5835 43.7405V47.7169H55.7507V55.6697H34.6704C33.5397 55.6718 32.409 55.7393 31.286 55.8684C18.0631 57.3403 5.66781 70.1582 4.20177 83.8589C2.27574 101.314 14.3548 117.084 31.1788 119.08C38.0299 119.893 44.9461 118.287 50.8084 114.521C53.3323 112.807 56.2184 111.749 59.2194 111.437C60.7027 111.316 62.1917 111.31 63.675 111.422C66.7241 111.728 69.6561 112.797 72.2182 114.539C86.6236 123.776 105.517 119.148 114.421 104.202C118.043 98.1203 119.586 90.951 118.8 83.8489C117.33 70.1482 104.927 57.3302 91.7097 55.8689ZM59.5835 51.6935H63.4162V55.6699H59.5835V51.6935ZM108.327 106.04C99.6629 116.094 85.2957 118.251 74.2382 111.159C71.1509 109.074 67.6189 107.801 63.949 107.455C63.1402 107.394 62.3239 107.364 61.4998 107.364C60.6279 107.364 59.7751 107.402 58.9166 107.471C55.3024 107.831 51.8259 109.09 48.7826 111.142C36.1825 119.229 19.6478 115.189 11.85 102.117C8.67646 96.7946 7.32341 90.5198 8.01139 84.3005C9.27235 72.5263 20.3375 61.0902 31.6979 59.8236C32.6848 59.7083 33.6776 59.6507 34.6702 59.6468H88.3291C89.3219 59.6468 90.3144 59.7025 91.3014 59.8118C102.66 61.0783 113.723 72.5144 114.988 84.2887C115.893 92.1956 113.465 100.122 108.327 106.04Z" fill="black"/>
</g>
<defs>
<filter id="filter0_d" x="0" y="0" width="123" height="127.295" filterUnits="userSpaceOnUse" color-interpolation-filters="sRGB">
<feFlood flood-opacity="0" result="BackgroundImageFix"/>
<feColorMatrix in="SourceAlpha" type="matrix" values="0 0 0 0 0 0 0 0 0 0 0 0 0 0 0 0 0 0 127 0" result="hardAlpha"/>
<feOffset dy="4"/>
<feGaussianBlur stdDeviation="2"/>
<feComposite in2="hardAlpha" operator="out"/>
<feColorMatrix type="matrix" values="0 0 0 0 0 0 0 0 0 0 0 0 0 0 0 0 0 0 0.25 0"/>
<feBlend mode="normal" in2="BackgroundImageFix" result="effect1_dropShadow"/>
<feBlend mode="normal" in="SourceGraphic" in2="effect1_dropShadow" result="shape"/>
</filter>
</defs>
</svg>
