<svg width="22" height="22" viewBox="0 0 22 22" fill="none" xmlns="http://www.w3.org/2000/svg">
<path d="M1.17503 0.201602C1.11111 0.137687 1.03523 0.0869859 0.95172 0.0523948C0.86821 0.0178038 0.778705 6.73463e-10 0.688314 0C0.597923 -6.73463e-10 0.508418 0.0178038 0.424908 0.0523948C0.341398 0.0869859 0.265518 0.137687 0.201602 0.201602C0.137687 0.265518 0.0869859 0.341398 0.0523948 0.424908C0.0178038 0.508418 -6.73463e-10 0.597923 0 0.688314C6.73463e-10 0.778705 0.0178038 0.86821 0.0523948 0.95172C0.0869859 1.03523 0.137687 1.11111 0.201602 1.17503L5.01372 5.9844C2.63045 7.60997 0.971277 10.0972 0.385838 12.9221C0.367421 13.0106 0.366611 13.1018 0.383453 13.1906C0.400295 13.2794 0.434459 13.364 0.483995 13.4395C0.533531 13.5151 0.597469 13.5802 0.672158 13.6311C0.746847 13.682 0.830825 13.7176 0.919296 13.736C1.00777 13.7545 1.099 13.7553 1.18778 13.7384C1.27657 13.7216 1.36117 13.6874 1.43675 13.6379C1.51233 13.5883 1.57741 13.5244 1.62828 13.4497C1.67915 13.375 1.71482 13.291 1.73323 13.2026C1.99552 11.933 2.50842 10.7284 3.24192 9.65945C3.97542 8.59048 4.91478 7.67856 6.00502 6.97707L8.1856 9.15765C7.6202 9.56534 7.15013 10.091 6.8079 10.6983C6.46566 11.3055 6.25945 11.9799 6.20351 12.6747C6.14758 13.3695 6.24326 14.0682 6.48393 14.7224C6.72461 15.3765 7.10454 15.9706 7.59743 16.4635C8.09032 16.9564 8.68442 17.3364 9.3386 17.577C9.99279 17.8177 10.6915 17.9134 11.3863 17.8575C12.0811 17.8015 12.7554 17.5953 13.3627 17.2531C13.97 16.9108 14.4956 16.4408 14.9033 15.8754L20.825 21.7984C20.9541 21.9275 21.1291 22 21.3117 22C21.4942 22 21.6693 21.9275 21.7984 21.7984C21.9275 21.6693 22 21.4942 22 21.3117C22 21.1291 21.9275 20.9541 21.7984 20.825L1.17503 0.201602ZM13.9134 14.8854C13.639 15.3233 13.2694 15.6936 12.8321 15.9689C12.3949 16.2441 11.9011 16.4173 11.3877 16.4754C10.8743 16.5336 10.3544 16.4752 9.86662 16.3047C9.37886 16.1342 8.93582 15.8559 8.57046 15.4905C8.20509 15.1251 7.9268 14.6821 7.75628 14.1943C7.58577 13.7066 7.52741 13.1867 7.58555 12.6732C7.64369 12.1598 7.81684 11.6661 8.09211 11.2288C8.36739 10.7916 8.7377 10.422 9.17552 10.1476L13.9134 14.8868V14.8854Z" fill="black"/>
<path d="M11.1689 8.25244L15.8092 12.8913C15.7661 11.6747 15.2636 10.5197 14.4028 9.65887C13.542 8.79807 12.3869 8.2955 11.1703 8.25244H11.1689Z" fill="black"/>
<path d="M11.0001 5.50038C10.2164 5.50038 9.44782 5.60212 8.70951 5.79323L7.60547 4.68919C8.69837 4.31616 9.84526 4.12571 11.0001 4.12549C16.0775 4.12549 20.5446 7.80057 21.6142 12.922C21.6514 13.1007 21.6161 13.2869 21.5161 13.4395C21.416 13.5921 21.2595 13.6988 21.0808 13.736C20.9021 13.7732 20.716 13.7379 20.5633 13.6378C20.4107 13.5378 20.304 13.3812 20.2668 13.2025C19.3292 8.69975 15.4094 5.50038 11.0001 5.50038Z" fill="black"/>
</svg>
