<svg width="111" height="115" viewBox="0 0 111 115" fill="none" xmlns="http://www.w3.org/2000/svg">
<g filter="url(#filter0_d)">
<path d="M88.7262 15.5246C92.3962 15.5246 95.3714 12.4355 95.3714 8.62487C95.3714 4.81423 92.3962 1.7251 88.7262 1.7251C85.0562 1.7251 82.0811 4.81423 82.0811 8.62487C82.0811 12.4355 85.0562 15.5246 88.7262 15.5246Z" fill="#FF826E"/>
<path d="M55.5004 46.5742C59.1704 46.5742 62.1455 43.485 62.1455 39.6743C62.1455 35.8636 59.1704 32.7744 55.5004 32.7744C51.8304 32.7744 48.8552 35.8636 48.8552 39.6743C48.8552 43.485 51.8304 46.5742 55.5004 46.5742Z" fill="#FF826E"/>
<path d="M22.2743 77.6225C25.9443 77.6225 28.9195 74.5334 28.9195 70.7227C28.9195 66.9119 25.9443 63.8228 22.2743 63.8228C18.6043 63.8228 15.6292 66.9119 15.6292 70.7227C15.6292 74.5334 18.6043 77.6225 22.2743 77.6225Z" fill="#FF826E"/>
<path d="M105.339 72.4483V82.798L101.202 83.9019C100.67 85.9374 99.8895 87.8693 98.9093 89.6633L101.086 93.4754L94.0251 100.789L90.3537 98.5468C88.6259 99.5645 86.7653 100.375 84.805 100.927L83.7418 105.222H73.774L72.7108 100.927C70.7505 100.375 68.8898 99.5645 67.1621 98.5468L63.4906 100.789L56.4302 93.4754L58.6064 89.6633C57.6263 87.8693 56.8455 85.9374 56.3139 83.9019L52.1772 82.798V72.4483L56.3139 71.3443C56.696 69.9299 57.1777 68.5671 57.7592 67.2734H65.4676C63.3743 70.1541 62.145 73.742 62.145 77.6231C62.145 87.1449 69.5876 94.8726 78.7579 94.8726C87.9282 94.8726 95.3708 87.1449 95.3708 77.6231C95.3708 68.1014 87.9282 60.3736 78.7579 60.3736C76.3989 60.3736 74.1395 60.8911 72.1127 61.8053V50.0239H83.7418L84.805 54.3191C86.7653 54.871 88.6259 55.6818 90.3537 56.6995L94.0251 54.4398L101.086 61.7708L98.9093 65.583C99.8895 67.3769 100.67 69.3089 101.202 71.3443L105.339 72.4483Z" fill="#FFC729"/>
<path d="M78.7579 60.3735C87.9282 60.3735 95.3708 68.1013 95.3708 77.623C95.3708 87.1448 87.9282 94.8726 78.7579 94.8726C69.5876 94.8726 62.145 87.1448 62.145 77.623C62.145 73.7419 63.3744 70.154 65.4676 67.2733H68.7902C70.6176 67.2733 72.1128 65.7209 72.1128 63.8234V61.8052C74.1395 60.891 76.3989 60.3735 78.7579 60.3735ZM85.4031 77.623C85.4031 73.8109 82.4294 70.7232 78.7579 70.7232C75.0865 70.7232 72.1128 73.8109 72.1128 77.623C72.1128 81.4352 75.0865 84.5228 78.7579 84.5228C82.4294 84.5228 85.4031 81.4352 85.4031 77.623Z" fill="#FCD770"/>
<path d="M105.339 18.9743V32.7739C105.339 34.6714 103.844 36.2238 102.016 36.2238H75.4356C73.6082 36.2238 72.113 34.6714 72.113 32.7739V18.9743C72.113 17.0769 73.6082 15.5244 75.4356 15.5244H88.7259H102.016C103.844 15.5244 105.339 17.0769 105.339 18.9743Z" fill="#E6E9ED"/>
<path d="M72.113 50.0236V61.8049V63.8231C72.113 65.7205 70.6178 67.273 68.7904 67.273H65.4678H57.7595H42.2098C40.3824 67.273 38.8872 65.7205 38.8872 63.8231V50.0236C38.8872 48.1262 40.3824 46.5737 42.2098 46.5737H55.5001H68.7904C70.6178 46.5737 72.113 48.1262 72.113 50.0236Z" fill="#E6E9ED"/>
<path d="M5.66113 94.8721V81.0725C5.66113 79.175 7.15629 77.6226 8.98371 77.6226H22.274H35.5644C37.3918 77.6226 38.8869 79.175 38.8869 81.0725V94.8721C38.8869 96.7695 37.3918 98.322 35.5644 98.322H8.98371C7.15629 98.322 5.66113 96.7695 5.66113 94.8721Z" fill="#E6E9ED"/>
<path d="M75.4355 13.7996C72.6877 13.7996 70.4516 16.1214 70.4516 18.9745V32.7741C70.4516 35.6271 72.6877 37.9489 75.4355 37.9489H102.016C104.764 37.9489 107 35.6271 107 32.7741V18.9745C107 16.1214 104.764 13.7996 102.016 13.7996H95.3278C96.3827 12.3541 97.0323 10.574 97.0323 8.62476C97.0323 3.86907 93.306 0 88.7258 0C84.7154 0 81.3596 2.96864 80.5871 6.89981H62.1452C57.565 6.89981 53.8387 10.7689 53.8387 15.5246V31.2233C50.5892 31.9116 48.0242 34.5749 47.3613 37.9489H28.9194C24.3392 37.9489 20.6129 41.818 20.6129 46.5737V62.2725C16.8268 63.0746 13.9677 66.559 13.9677 70.723C13.9677 72.6722 14.6173 74.4523 15.6722 75.8979H8.98387C6.2361 75.8979 4 78.2196 4 81.0727V94.8723C4 97.7254 6.2361 100.047 8.98387 100.047H35.5645C38.3123 100.047 40.5484 97.7254 40.5484 94.8723V81.0727C40.5484 78.2196 38.3123 75.8979 35.5645 75.8979H28.8762C29.9311 74.4523 30.5806 72.6722 30.5806 70.723C30.5806 66.559 27.7216 63.0746 23.9355 62.2725V46.5737C23.9355 43.7206 26.1716 41.3988 28.9194 41.3988H47.3613C47.6139 42.6805 48.1621 43.8414 48.8964 44.8487H42.2097C39.4619 44.8487 37.2258 47.1705 37.2258 50.0236V63.8232C37.2258 66.6763 39.4619 68.998 42.2097 68.998H55.3006C55.196 69.3034 55.0847 69.6052 54.9916 69.9157L50.5161 71.1111V84.1362L54.9916 85.3299C55.4385 86.8202 56.0117 88.2589 56.7028 89.6285L54.352 93.7528L63.2233 102.964L67.1955 100.525C68.5162 101.243 69.9034 101.839 71.3371 102.302L72.485 106.947H85.0311L86.179 102.302C87.6127 101.838 88.9983 101.243 90.3206 100.525L94.2928 102.964L103.164 93.7528L100.813 89.6285C101.504 88.2589 102.078 86.8202 102.524 85.3299L107 84.1345V71.1094L102.524 69.9157C102.078 68.4254 101.504 66.9868 100.813 65.6171L103.164 61.4928L94.2928 52.2815L90.3206 54.7224C89.0016 54.003 87.6144 53.4097 86.179 52.9457L85.0311 48.2986H73.4685C72.7807 46.296 70.9533 44.8487 68.7903 44.8487H62.102C63.1569 43.4032 63.8064 41.6231 63.8064 39.6739C63.8064 35.5098 60.9474 32.0254 57.1613 31.2233V15.5246C57.1613 12.6715 59.3974 10.3497 62.1452 10.3497H80.5871C80.8397 11.6313 81.3879 12.7922 82.1222 13.7996H75.4355ZM37.2258 81.0727V94.8723C37.2258 95.8245 36.4799 96.5973 35.5645 96.5973H8.98387C8.0685 96.5973 7.32258 95.8245 7.32258 94.8723V81.0727C7.32258 80.1205 8.0685 79.3478 8.98387 79.3478H35.5645C36.4799 79.3478 37.2258 80.1205 37.2258 81.0727ZM27.2581 70.723C27.2581 73.5761 25.022 75.8979 22.2742 75.8979C19.5264 75.8979 17.2903 73.5761 17.2903 70.723C17.2903 67.8699 19.5264 65.5481 22.2742 65.5481C25.022 65.5481 27.2581 67.8699 27.2581 70.723ZM83.4379 55.7332L84.3732 55.9936C86.184 56.4991 87.9168 57.2425 89.5199 58.2016L90.3605 58.7053L93.7645 56.6129L98.9909 62.0396L96.9774 65.5775L97.4625 66.4503C98.3862 68.1114 99.1022 69.9088 99.589 71.7925L99.8415 72.7636L103.677 73.7848V81.4591L99.8415 82.482L99.589 83.4531C99.1022 85.3368 98.3845 87.1342 97.4625 88.7953L96.9774 89.6681L98.9909 93.206L93.7645 98.631L90.3605 96.5403L89.5199 97.044C87.9151 98.0048 86.184 98.7483 84.3749 99.252L83.4379 99.5124L82.4528 103.497H75.0634L74.0782 99.5124L73.1412 99.252C71.3321 98.7483 69.601 98.0031 67.9962 97.044L67.1556 96.5403L63.7516 98.631L58.5252 93.206L60.5387 89.6681L60.0536 88.7953C59.1299 87.1342 58.4139 85.3368 57.9271 83.4531L57.6746 82.482L53.8387 81.4608V73.7865L57.6746 72.7636L57.9271 71.7925C58.1747 70.8351 58.502 69.9071 58.8658 68.9998H62.4807C61.1716 71.6493 60.4839 74.58 60.4839 77.6228C60.4839 88.0846 68.6823 96.5973 78.7581 96.5973C88.8338 96.5973 97.0323 88.0846 97.0323 77.6228C97.0323 67.161 88.8338 58.6483 78.7581 58.6483C77.0519 58.6483 75.3873 58.9088 73.7742 59.3832V51.7485H82.4528L83.4379 55.7332ZM73.7742 63.8232V62.9987C75.369 62.4122 77.0386 62.0982 78.7581 62.0982C87.0014 62.0982 93.7097 69.0619 93.7097 77.6228C93.7097 86.1837 87.0014 93.1474 78.7581 93.1474C70.5147 93.1474 63.8064 86.1837 63.8064 77.6228C63.8064 74.5127 64.6853 71.5527 66.3366 68.998H68.7903C71.5381 68.998 73.7742 66.6763 73.7742 63.8232ZM70.4516 50.0236V63.8232C70.4516 64.7754 69.7057 65.5481 68.7903 65.5481H42.2097C41.2943 65.5481 40.5484 64.7754 40.5484 63.8232V50.0236C40.5484 49.0731 41.2943 48.2986 42.2097 48.2986H68.7903C69.7057 48.2986 70.4516 49.0731 70.4516 50.0236ZM60.4839 39.6739C60.4839 42.5269 58.2478 44.8487 55.5 44.8487C52.7522 44.8487 50.5161 42.5269 50.5161 39.6739C50.5161 36.8208 52.7522 34.499 55.5 34.499C58.2478 34.499 60.4839 36.8208 60.4839 39.6739ZM103.677 18.9745V32.7741C103.677 33.7245 102.931 34.499 102.016 34.499H75.4355C74.5201 34.499 73.7742 33.7245 73.7742 32.7741V18.9745C73.7742 18.024 74.5201 17.2495 75.4355 17.2495H102.016C102.931 17.2495 103.677 18.024 103.677 18.9745ZM83.7419 8.62476C83.7419 5.77169 85.978 3.4499 88.7258 3.4499C91.4736 3.4499 93.7097 5.77169 93.7097 8.62476C93.7097 11.4778 91.4736 13.7996 88.7258 13.7996C85.978 13.7996 83.7419 11.4778 83.7419 8.62476Z" fill="black"/>
<path d="M77.0969 20.6992H100.355V24.1505H77.0969V20.6992Z" fill="black"/>
<path d="M77.0969 27.5991H100.355V31.049H77.0969V27.5991Z" fill="black"/>
<path d="M43.8711 51.749H67.1292V55.1989H43.8711V51.749Z" fill="black"/>
<path d="M43.8711 58.6479H67.1292V62.0991H43.8711V58.6479Z" fill="black"/>
<path d="M10.6453 82.7983H33.9033V86.2496H10.6453V82.7983Z" fill="black"/>
<path d="M10.6453 89.6973H33.9033V93.1472H10.6453V89.6973Z" fill="black"/>
<path d="M78.7581 86.248C83.3383 86.248 87.0646 82.3789 87.0646 77.6233C87.0646 72.8676 83.3383 68.9985 78.7581 68.9985C74.1779 68.9985 70.4517 72.8676 70.4517 77.6233C70.4517 82.3789 74.1779 86.248 78.7581 86.248ZM78.7581 72.4484C81.5059 72.4484 83.742 74.7702 83.742 77.6233C83.742 80.4763 81.5059 82.7981 78.7581 82.7981C76.0103 82.7981 73.7742 80.4763 73.7742 77.6233C73.7742 74.7702 76.0103 72.4484 78.7581 72.4484Z" fill="black"/>
</g>
<defs>
<filter id="filter0_d" x="0" y="0" width="111" height="114.947" filterUnits="userSpaceOnUse" color-interpolation-filters="sRGB">
<feFlood flood-opacity="0" result="BackgroundImageFix"/>
<feColorMatrix in="SourceAlpha" type="matrix" values="0 0 0 0 0 0 0 0 0 0 0 0 0 0 0 0 0 0 127 0" result="hardAlpha"/>
<feOffset dy="4"/>
<feGaussianBlur stdDeviation="2"/>
<feComposite in2="hardAlpha" operator="out"/>
<feColorMatrix type="matrix" values="0 0 0 0 0 0 0 0 0 0 0 0 0 0 0 0 0 0 0.25 0"/>
<feBlend mode="normal" in2="BackgroundImageFix" result="effect1_dropShadow"/>
<feBlend mode="normal" in="SourceGraphic" in2="effect1_dropShadow" result="shape"/>
</filter>
</defs>
</svg>
