<svg width="366" height="313" viewBox="0 0 366 313" fill="none" xmlns="http://www.w3.org/2000/svg">
<g clip-path="url(#clip0)">
<path d="M333.156 285.736C326.139 293.918 318.1 300.983 309.274 306.723C309.072 306.858 308.866 306.985 308.66 307.117L294.372 293.342C294.522 293.191 294.688 293.02 294.867 292.833C305.513 281.822 358.364 204.834 361.886 186.086C361.643 187.648 365.064 248.899 333.156 285.736Z" fill="#F0F0F0"/>
<path d="M312.032 309.38C311.761 309.45 311.487 309.516 311.211 309.576L300.492 299.242C300.701 299.162 300.946 299.068 301.226 298.963C305.825 297.189 319.523 291.834 333.155 285.735C347.802 279.179 362.38 271.771 365.515 267.025C364.842 268.128 344.126 301.563 312.032 309.38Z" fill="#F0F0F0"/>
<path d="M332.958 81.9735H331.431V36.4236C331.431 32.9616 330.805 29.5334 329.589 26.3349C328.373 23.1364 326.59 20.2302 324.342 17.7821C322.095 15.3341 319.427 13.3922 316.49 12.0673C313.554 10.7424 310.407 10.0605 307.228 10.0605H218.631C215.453 10.0605 212.306 10.7424 209.369 12.0673C206.433 13.3921 203.765 15.334 201.517 17.7821C199.27 20.2301 197.487 23.1363 196.271 26.3348C195.054 29.5333 194.428 32.9615 194.428 36.4235V286.314C194.428 289.776 195.054 293.204 196.271 296.403C197.487 299.601 199.27 302.507 201.517 304.955C203.765 307.403 206.433 309.345 209.369 310.67C212.306 311.995 215.453 312.677 218.631 312.677H307.228C310.406 312.677 313.554 311.995 316.49 310.67C319.427 309.345 322.095 307.403 324.342 304.955C326.59 302.507 328.373 299.601 329.589 296.403C330.805 293.204 331.431 289.776 331.431 286.314V114.397H332.958V81.9735Z" fill="#3F3D56"/>
<path d="M326.279 36.605V286.132C326.279 288.717 325.811 291.277 324.903 293.666C323.994 296.054 322.663 298.225 320.984 300.052C319.305 301.88 317.312 303.33 315.119 304.319C312.926 305.308 310.575 305.816 308.202 305.815H219.178C216.805 305.815 214.455 305.306 212.263 304.317C210.07 303.328 208.078 301.878 206.4 300.05C204.722 298.223 203.391 296.053 202.483 293.664C201.575 291.276 201.107 288.716 201.107 286.132V36.605C201.107 34.02 201.575 31.4604 202.483 29.0721C203.391 26.6839 204.722 24.514 206.4 22.6861C208.078 20.8583 210.07 19.4084 212.263 18.4193C214.455 17.4302 216.805 16.9212 219.178 16.9214H229.982C229.451 18.3417 229.25 19.8822 229.394 21.4074C229.539 22.9325 230.025 24.3957 230.811 25.6681C231.596 26.9405 232.656 27.9832 233.899 28.7045C235.141 29.4258 236.527 29.8035 237.934 29.8045H288.689C290.098 29.806 291.485 29.4298 292.728 28.7092C293.972 27.9886 295.033 26.9458 295.819 25.6726C296.605 24.3995 297.091 22.9352 297.235 21.409C297.378 19.8828 297.174 18.3416 296.642 16.9214H308.202C310.575 16.9204 312.926 17.4289 315.119 18.4177C317.312 19.4064 319.305 20.8562 320.984 22.6841C322.663 24.5119 323.994 26.6822 324.903 29.0707C325.811 31.4593 326.279 34.0195 326.279 36.605Z" fill="white"/>
<path d="M298.587 166.272H220.338C218.967 166.271 217.653 165.677 216.684 164.621C215.715 163.566 215.17 162.134 215.168 160.642V157.839C215.17 156.346 215.715 154.915 216.684 153.859C217.653 152.803 218.967 152.21 220.338 152.208H298.587C299.957 152.21 301.271 152.803 302.24 153.859C303.21 154.915 303.755 156.346 303.756 157.839V160.642C303.755 162.134 303.21 163.566 302.24 164.621C301.271 165.677 299.957 166.271 298.587 166.272Z" fill="#F0F0F0"/>
<path d="M298.587 190.433H220.338C218.967 190.431 217.653 189.837 216.684 188.782C215.715 187.726 215.17 186.295 215.168 184.802V181.999C215.17 180.506 215.715 179.075 216.684 178.019C217.653 176.964 218.967 176.37 220.338 176.368H298.587C299.957 176.37 301.271 176.964 302.24 178.019C303.21 179.075 303.755 180.506 303.756 181.999V184.802C303.755 186.295 303.21 187.726 302.24 188.782C301.271 189.837 299.957 190.431 298.587 190.433Z" fill="#F0F0F0"/>
<path d="M302.501 160.869H224.252C222.813 160.867 221.433 160.244 220.416 159.136C219.398 158.027 218.826 156.524 218.824 154.957V152.154C218.826 150.587 219.398 149.084 220.416 147.975C221.433 146.867 222.813 146.243 224.252 146.242H302.501C303.94 146.243 305.32 146.867 306.337 147.975C307.355 149.084 307.927 150.587 307.929 152.154V154.957C307.927 156.524 307.355 158.027 306.337 159.136C305.32 160.244 303.94 160.867 302.501 160.869ZM224.252 147.368C223.087 147.369 221.97 147.874 221.147 148.771C220.323 149.669 219.859 150.885 219.858 152.154V154.957C219.859 156.226 220.323 157.442 221.147 158.34C221.97 159.237 223.087 159.742 224.252 159.743H302.501C303.666 159.742 304.783 159.237 305.607 158.34C306.43 157.442 306.894 156.226 306.895 154.957V152.154C306.894 150.885 306.43 149.669 305.607 148.771C304.783 147.874 303.666 147.369 302.501 147.368H224.252Z" fill="#3F3D56"/>
<path d="M302.501 185.029H224.252C222.813 185.028 221.433 184.404 220.416 183.296C219.398 182.187 218.826 180.685 218.824 179.117V176.314C218.826 174.747 219.398 173.244 220.416 172.136C221.433 171.027 222.813 170.404 224.252 170.402H302.501C303.94 170.404 305.32 171.027 306.337 172.136C307.355 173.244 307.927 174.747 307.929 176.314V179.117C307.927 180.685 307.355 182.187 306.337 183.296C305.32 184.404 303.94 185.028 302.501 185.029ZM224.252 171.528C223.087 171.529 221.97 172.034 221.147 172.931C220.323 173.829 219.859 175.045 219.858 176.314V179.117C219.859 180.386 220.323 181.603 221.147 182.5C221.97 183.397 223.087 183.902 224.252 183.903H302.501C303.666 183.902 304.783 183.397 305.607 182.5C306.43 181.603 306.894 180.386 306.895 179.117V176.314C306.894 175.045 306.43 173.829 305.607 172.931C304.783 172.034 303.666 171.529 302.501 171.528H224.252Z" fill="#3F3D56"/>
<path d="M326.279 36.605V90.8805C318.361 93.1494 310.071 93.4097 302.047 91.6414C294.023 89.8731 286.478 86.1233 279.992 80.6805C273.507 75.2377 268.255 68.2469 264.639 60.2461C261.023 52.2453 259.141 43.4476 259.136 34.53C259.136 32.9383 259.195 31.3631 259.312 29.8045H288.689C290.097 29.806 291.484 29.4298 292.728 28.7092C293.971 27.9886 295.033 26.9458 295.819 25.6726C296.605 24.3995 297.091 22.9352 297.234 21.409C297.378 19.8828 297.174 18.3416 296.642 16.9214H308.201C310.575 16.9204 312.926 17.4289 315.119 18.4177C317.312 19.4064 319.305 20.8562 320.984 22.6841C322.662 24.5119 323.994 26.6822 324.903 29.0707C325.811 31.4593 326.279 34.0195 326.279 36.605Z" fill="#F0F0F0"/>
<path d="M246.089 302.426C246.089 303.57 246.05 304.7 245.965 305.815H219.178C216.805 305.815 214.455 305.306 212.263 304.317C210.07 303.328 208.078 301.878 206.4 300.05C204.722 298.223 203.391 296.053 202.483 293.664C201.575 291.276 201.107 288.717 201.107 286.132V259.442C206.722 258.646 212.428 259.163 217.845 260.959C223.262 262.754 228.265 265.787 232.522 269.854C236.778 273.922 240.19 278.93 242.529 284.547C244.869 290.163 246.082 296.258 246.089 302.426H246.089Z" fill="#6D6BEF"/>
<path d="M30.0458 255.594C30.7984 255.955 31.6517 255.975 32.4184 255.652C33.185 255.328 33.8025 254.686 34.1353 253.867L58.2662 194.296C58.8185 192.933 58.9873 191.422 58.7511 189.954C58.515 188.487 57.8846 187.128 56.9396 186.051C55.9946 184.973 54.7775 184.225 53.4423 183.901C52.107 183.577 50.7135 183.692 49.438 184.231H49.438C47.9644 184.844 46.7313 185.994 45.9485 187.486C45.824 187.722 45.7111 187.965 45.6102 188.214L21.4794 247.784C21.3149 248.19 21.2255 248.628 21.2161 249.071C21.2068 249.515 21.2778 249.956 21.4251 250.37C21.5723 250.783 21.7929 251.161 22.0743 251.482C22.3557 251.803 22.6924 252.06 23.065 252.239L30.0458 255.594Z" fill="#6D6BEF"/>
<path d="M57.2757 218.753L33.4072 212.975L39.3149 195.952C40.3213 191.792 42.6635 188.162 45.9165 185.721C49.1695 183.28 53.118 182.189 57.0458 182.648L57.2757 182.676L57.2757 218.753Z" fill="#2F2E41"/>
<path d="M105.486 256.446C104.784 256.445 104.097 256.222 103.509 255.805C102.921 255.388 102.456 254.793 102.172 254.095L78.0408 194.524C77.2734 192.628 77.202 190.485 77.8415 188.534C78.4809 186.583 79.7824 184.973 81.4783 184.035C83.1742 183.098 85.1355 182.904 86.9587 183.494C88.7818 184.083 90.3282 185.412 91.2796 187.205V187.205C91.4133 187.458 91.5345 187.719 91.6428 187.987L115.774 247.558C116.161 248.514 116.184 249.599 115.837 250.573C115.49 251.548 114.802 252.333 113.924 252.755L106.706 256.223L106.703 256.214C106.312 256.368 105.901 256.446 105.486 256.446Z" fill="#6D6BEF"/>
<path d="M72.1071 235.99C71.2847 235.991 70.4963 236.348 69.9148 236.981C69.3334 237.614 69.0063 238.473 69.0054 239.369V308.636C69.0063 309.532 69.3334 310.39 69.9148 311.024C70.4963 311.657 71.2847 312.014 72.1071 312.015H79.737C80.5593 312.014 81.3477 311.657 81.9292 311.024C82.5107 310.39 82.8378 309.532 82.8387 308.636V239.369C82.8378 238.473 82.5107 237.614 81.9292 236.981C81.3477 236.348 80.5593 235.991 79.737 235.99H72.1071Z" fill="#6D6BEF"/>
<path d="M57.0158 235.99C56.1934 235.991 55.405 236.348 54.8235 236.981C54.2421 237.614 53.915 238.473 53.9141 239.369V308.636C53.915 309.532 54.2421 310.39 54.8235 311.024C55.405 311.657 56.1934 312.014 57.0158 312.015H64.6458C65.4681 312.014 66.2565 311.657 66.838 311.024C67.4195 310.39 67.7466 309.532 67.7475 308.636V239.369C67.7466 238.473 67.4195 237.614 66.838 236.981C66.2565 236.348 65.4681 235.991 64.6458 235.99H57.0158Z" fill="#6D6BEF"/>
<path d="M68.1486 163.42C82.7093 163.42 94.513 150.563 94.513 134.703C94.513 118.843 82.7093 105.986 68.1486 105.986C53.5879 105.986 41.7842 118.843 41.7842 134.703C41.7842 150.563 53.5879 163.42 68.1486 163.42Z" fill="#6D6BEF"/>
<path d="M76.9223 146.758C78.6313 146.707 80.7582 146.642 82.3968 145.338C82.8847 144.934 83.2856 144.419 83.5714 143.828C83.8571 143.237 84.0209 142.586 84.0511 141.919C84.0807 141.445 84.0093 140.97 83.8425 140.531C83.6756 140.092 83.4179 139.701 83.0893 139.389C82.2335 138.601 80.9838 138.416 79.6371 138.847L81.0324 127.74L80.0081 127.587L78.3677 140.645L79.2231 140.218C80.2148 139.722 81.5761 139.47 82.422 140.249C82.6297 140.452 82.7915 140.705 82.8949 140.988C82.9982 141.271 83.0403 141.576 83.0179 141.879C82.9928 142.376 82.8699 142.86 82.6574 143.3C82.445 143.74 82.1481 144.125 81.7869 144.429C80.5118 145.443 78.8164 145.574 76.8936 145.633L76.9223 146.758Z" fill="#2F2E41"/>
<path d="M91.666 128.698H86.0977V129.824H91.666V128.698Z" fill="#2F2E41"/>
<path d="M74.0899 128.698H68.5215V129.824H74.0899V128.698Z" fill="#2F2E41"/>
<path d="M94.2718 256.796L84.7827 181.343C84.6809 180.534 84.3135 179.792 83.7486 179.256C83.1836 178.719 82.4592 178.423 81.7095 178.423H74.547C74.5768 178.237 74.5923 178.049 74.5934 177.86V175.045C74.5934 174.148 74.2666 173.289 73.6849 172.656C73.1032 172.022 72.3143 171.666 71.4917 171.666H65.2883C64.4657 171.666 63.6768 172.022 63.0951 172.656C62.5134 173.289 62.1866 174.148 62.1866 175.045V177.86C62.1877 178.049 62.2032 178.237 62.2331 178.423H55.0705C54.3208 178.423 53.5964 178.719 53.0315 179.256C52.4665 179.792 52.0991 180.534 51.9973 181.343L42.5082 256.796C42.4481 257.274 42.4826 257.761 42.6095 258.223C42.7364 258.685 42.9527 259.112 43.2438 259.476C43.535 259.839 43.8942 260.131 44.2974 260.33C44.7005 260.53 45.1382 260.633 45.5811 260.633H91.1988C91.6417 260.633 92.0795 260.53 92.4826 260.33C92.8858 260.131 93.245 259.839 93.5361 259.476C93.8273 259.112 94.0436 258.685 94.1704 258.223C94.2973 257.761 94.3319 257.274 94.2718 256.796Z" fill="#2F2E41"/>
<path d="M79.5044 218.753V182.675L79.7343 182.647C83.6669 182.189 87.6198 183.283 90.8749 185.73C94.13 188.177 96.4714 191.814 97.4737 195.981L103.373 212.975L79.5044 218.753Z" fill="#2F2E41"/>
<path d="M66.821 164.317L48.5854 156.607C45.6035 155.346 42.6049 154.124 39.6388 152.82C38.3682 152.338 37.1979 151.586 36.1951 150.609C35.3221 149.602 34.7271 148.348 34.4783 146.99C33.8458 144.078 33.9601 140.895 34.0053 137.923C34.0403 134.672 34.2859 131.428 34.7402 128.215C35.5366 122.177 37.4067 116.366 40.2459 111.108C45.3599 101.969 54.171 95.0923 64.3062 95.6411C68.9984 95.8951 73.7176 97.7291 77.2038 101.223C77.5674 101.697 77.9754 102.128 78.4212 102.509C78.7311 102.635 79.0682 102.66 79.3908 102.58C79.8162 102.55 80.242 102.527 80.6681 102.511C82.1467 102.443 83.6279 102.511 85.0961 102.714C87.7716 103.028 90.3074 104.175 92.4008 106.017C94.1429 107.65 95.5605 109.954 95.7064 112.515C95.7768 113.691 95.5984 114.869 95.1848 115.957C94.7712 117.046 94.1335 118.016 93.321 118.794C91.1454 120.791 88.0414 120.089 85.4317 119.939L75.8713 119.387L71.0274 119.107C70.0301 119.05 70.033 120.739 71.0274 120.797L83.902 121.54C85.971 121.659 88.1033 121.952 90.1739 121.817C91.7649 121.738 93.284 121.072 94.4817 119.929C95.5755 118.834 96.3903 117.45 96.8466 115.91C97.3029 114.371 97.3852 112.729 97.0854 111.144C96.4216 107.688 94.0603 104.829 91.2921 103.129C87.5256 100.814 83.0271 100.593 78.8126 100.935L79.3609 101.182C74.5935 95.6087 67.2909 93.2554 60.4352 94.079C53.1968 94.9485 46.7588 99.3471 42.1331 105.362C36.9758 112.068 34.1654 120.43 33.0728 129.028C32.5042 133.67 32.317 138.359 32.5135 143.037C32.5054 145.101 32.8294 147.15 33.471 149.091C34.203 150.981 35.5264 152.526 37.206 153.453C39.1316 154.465 41.1113 155.351 43.1343 156.106L49.8527 158.946L63.0495 164.525L66.4087 165.946C67.3397 166.339 67.743 164.706 66.821 164.317Z" fill="#2F2E41"/>
<path d="M38.1485 106.911C36.5637 106.911 35.0145 106.399 33.6968 105.44C32.3791 104.481 31.3521 103.118 30.7457 101.523C30.1392 99.9286 29.9805 98.1737 30.2897 96.4807C30.5989 94.7876 31.362 93.2325 32.4826 92.0119C33.6032 90.7913 35.0309 89.96 36.5853 89.6233C38.1396 89.2865 39.7507 89.4594 41.2148 90.1199C42.6789 90.7805 43.9303 91.8992 44.8108 93.3345C45.6912 94.7698 46.1612 96.4572 46.1612 98.1834C46.1588 100.497 45.3138 102.716 43.8117 104.352C42.3095 105.988 40.2728 106.909 38.1485 106.911ZM38.1485 91.1448C36.8704 91.1448 35.6211 91.5576 34.5584 92.331C33.4958 93.1044 32.6676 94.2037 32.1785 95.4898C31.6894 96.776 31.5614 98.1912 31.8108 99.5565C32.0601 100.922 32.6755 102.176 33.5792 103.16C34.4829 104.145 35.6343 104.815 36.8878 105.087C38.1413 105.358 39.4406 105.219 40.6213 104.686C41.8021 104.153 42.8113 103.251 43.5213 102.094C44.2313 100.936 44.6103 99.5755 44.6103 98.1834C44.6084 96.3173 43.927 94.5282 42.7156 93.2087C41.5041 91.8892 39.8617 91.1469 38.1485 91.1448Z" fill="#2F2E41"/>
<path d="M172.092 160.999L154.749 146.55L141.485 165.441L158.828 179.889L172.092 160.999Z" fill="#F0F0F0"/>
<path d="M74.0761 32.0211C76.8164 32.0188 79.519 32.7154 81.9677 34.0552C84.4163 35.395 86.5429 37.3407 88.1771 39.7366L98.3041 25.3139L67.9184 0L44.6787 33.0975L57.7748 44.0077C59.0854 40.4673 61.3376 37.4345 64.2423 35.2986C67.147 33.1627 70.5715 32.0214 74.0761 32.0211Z" fill="#F0F0F0"/>
<path d="M365.483 313H0.516949C0.379846 313 0.248357 312.941 0.151411 312.835C0.0544637 312.73 0 312.586 0 312.437C0 312.288 0.0544637 312.145 0.151411 312.039C0.248357 311.933 0.379846 311.874 0.516949 311.874H365.483C365.62 311.874 365.752 311.933 365.849 312.039C365.946 312.145 366 312.288 366 312.437C366 312.586 365.946 312.73 365.849 312.835C365.752 312.941 365.62 313 365.483 313Z" fill="#3F3D56"/>
<path d="M276.406 219.567H239.257C237.887 219.566 236.573 218.972 235.604 217.916C234.635 216.861 234.089 215.429 234.088 213.937V211.134C234.089 209.641 234.635 208.21 235.604 207.154C236.573 206.098 237.887 205.505 239.257 205.503H276.406C277.777 205.505 279.091 206.098 280.06 207.154C281.029 208.21 281.574 209.641 281.576 211.134V213.937C281.574 215.429 281.029 216.861 280.06 217.916C279.091 218.972 277.777 219.566 276.406 219.567Z" fill="#6D6BEF"/>
<path d="M280.321 214.164H243.172C241.733 214.162 240.353 213.539 239.335 212.43C238.318 211.322 237.745 209.819 237.744 208.252V205.449C237.745 203.881 238.318 202.379 239.335 201.27C240.353 200.162 241.733 199.538 243.172 199.537H280.321C281.76 199.538 283.14 200.162 284.157 201.27C285.175 202.379 285.747 203.881 285.749 205.449V208.252C285.747 209.819 285.175 211.322 284.157 212.43C283.14 213.539 281.76 214.162 280.321 214.164ZM243.172 200.663C242.007 200.664 240.89 201.169 240.066 202.066C239.242 202.963 238.779 204.18 238.778 205.449V208.252C238.779 209.521 239.242 210.737 240.066 211.635C240.89 212.532 242.007 213.037 243.172 213.038H280.321C281.486 213.037 282.603 212.532 283.426 211.635C284.25 210.737 284.714 209.521 284.715 208.252V205.449C284.714 204.18 284.25 202.963 283.426 202.066C282.603 201.169 281.486 200.664 280.321 200.663H243.172Z" fill="#3F3D56"/>
</g>
<defs>
<clipPath id="clip0">
<rect width="366" height="313" fill="white"/>
</clipPath>
</defs>
</svg>
