<svg width="99" height="113" viewBox="0 0 99 113" fill="none" xmlns="http://www.w3.org/2000/svg">
<g filter="url(#filter0_d)">
<path d="M60.269 12.1924H16.2529C10.3032 12.1924 5.47998 17.1964 5.47998 23.369V92.1055C5.47998 98.2781 10.3032 103.282 16.2531 103.282H60.2692C66.2189 103.282 71.0423 98.2783 71.0423 92.1055V23.369C71.0421 17.1964 66.2187 12.1924 60.269 12.1924Z" fill="#4A80AA"/>
<path d="M22.3615 103.283H16.2524C10.3025 103.283 5.47949 98.2793 5.47949 92.1063V23.3693C5.47949 17.1965 10.3025 12.1929 16.2524 12.1929H22.3615C16.4133 12.1929 11.5885 17.1965 11.5885 23.3693V92.1063C11.5887 98.2793 16.4133 103.283 22.3615 103.283Z" fill="#407093"/>
<path d="M63.9754 25.8984V89.577C63.9754 93.0979 61.2248 95.9515 57.8311 95.9515H18.6897C15.2978 95.9515 12.5454 93.0979 12.5454 89.577V25.8984C12.5454 22.3776 15.2978 19.5239 18.6897 19.5239H24.691V19.8245C24.691 23.4644 27.5353 26.4151 31.0437 26.4151H45.4787C48.9873 26.4151 51.8314 23.4642 51.8314 19.8245V19.5239H57.8309C61.2246 19.5239 63.9754 22.3778 63.9754 25.8984Z" fill="#F9F6F9"/>
<path d="M24.5655 95.9516H18.6897C15.2978 95.9516 12.5454 93.098 12.5454 89.5771V25.8984C12.5454 22.3776 15.2978 19.5239 18.6897 19.5239H24.5655C21.1736 19.5239 18.4212 22.3776 18.4212 25.8984V89.5769C18.4212 93.098 21.1736 95.9516 24.5655 95.9516Z" fill="#DDDAEC"/>
<path d="M30.2165 52.8355H23.6105C20.6521 52.8355 18.2539 50.3475 18.2539 47.2783V40.4248C18.2539 37.3557 20.6521 34.8677 23.6105 34.8677H30.2165C33.1749 34.8677 35.5731 37.3557 35.5731 40.4248V47.2783C35.5733 50.3473 33.1749 52.8355 30.2165 52.8355Z" fill="#E28086"/>
<path d="M27.1772 52.8345H23.6103C20.6529 52.8345 18.2539 50.3473 18.2539 47.2775V40.4246C18.2539 37.3546 20.6531 34.8677 23.6103 34.8677H27.177C24.2179 34.8677 21.8207 37.3548 21.8207 40.4246V47.2775C21.8207 50.3475 24.2181 52.8345 27.1772 52.8345Z" fill="#DD636E"/>
<path d="M52.9109 52.8355H46.3048C43.3464 52.8355 40.9482 50.3475 40.9482 47.2783V40.4248C40.9482 37.3557 43.3464 34.8677 46.3048 34.8677H52.9109C55.8693 34.8677 58.2675 37.3557 58.2675 40.4248V47.2783C58.2675 50.3473 55.8693 52.8355 52.9109 52.8355Z" fill="#FFE07D"/>
<path d="M49.8714 52.8345H46.3046C43.3472 52.8345 40.9482 50.3473 40.9482 47.2775V40.4246C40.9482 37.3546 43.3474 34.8677 46.3046 34.8677H49.8714C46.9122 34.8677 44.515 37.3548 44.515 40.4246V47.2775C44.515 50.3475 46.9124 52.8345 49.8714 52.8345Z" fill="#FFD064"/>
<path d="M80.0267 46.797H63.3859C55.9339 46.797 49.8926 40.5297 49.8926 32.7983V15.5344C49.8926 7.80324 55.9337 1.53564 63.3859 1.53564H80.0267C87.4787 1.53564 93.52 7.80304 93.52 15.5344V32.7985C93.52 40.5297 87.4789 46.797 80.0267 46.797Z" fill="#BC95E2"/>
<path d="M72.3707 46.7951H63.3858C55.9364 46.7951 49.8931 40.53 49.8931 32.797V15.5348C49.8931 7.80155 55.9364 1.53662 63.3858 1.53662H72.3707C64.9167 1.53662 58.878 7.80176 58.878 15.5348V32.797C58.8778 40.53 64.9167 46.7951 72.3707 46.7951Z" fill="#AC80DD"/>
<path d="M30.2165 75.7062H23.6105C20.6521 75.7062 18.2539 73.2182 18.2539 70.149V63.2955C18.2539 60.2263 20.6521 57.7383 23.6105 57.7383H30.2165C33.1749 57.7383 35.5731 60.2263 35.5731 63.2955V70.149C35.5733 73.2182 33.1749 75.7062 30.2165 75.7062Z" fill="#B3E59F"/>
<path d="M27.1772 75.7062H23.6103C20.6529 75.7062 18.2539 73.219 18.2539 70.1492V63.2963C18.2539 60.2262 20.6531 57.7393 23.6103 57.7393H27.177C24.2179 57.7393 21.8207 60.2264 21.8207 63.2963V70.1492C21.8207 73.219 24.2181 75.7062 27.1772 75.7062Z" fill="#95D6A4"/>
<path d="M52.9099 75.7054H46.3038C43.3454 75.7054 40.9473 73.2174 40.9473 70.1481V63.2946C40.9473 60.2253 43.3454 57.7373 46.3038 57.7373H52.9099C55.8683 57.7373 58.2665 60.2253 58.2665 63.2946V70.1481C58.2665 73.2174 55.8683 75.7054 52.9099 75.7054Z" fill="#BC95E2"/>
<path d="M49.8704 75.7052H46.3036C43.3462 75.7052 40.9473 73.218 40.9473 70.1482V63.2953C40.9473 60.2253 43.3464 57.7383 46.3036 57.7383H49.8704C46.9112 57.7383 44.514 60.2255 44.514 63.2953V70.1482C44.514 73.218 46.9114 75.7052 49.8704 75.7052Z" fill="#AC80DD"/>
<path d="M31.2105 21.0604H45.3099C46.1272 21.0604 46.7899 20.3726 46.7899 19.5243C46.7899 18.676 46.1272 17.9883 45.3099 17.9883H31.2105C30.3931 17.9883 29.7305 18.676 29.7305 19.5243C29.7305 20.3726 30.3931 21.0604 31.2105 21.0604Z" fill="black"/>
<path d="M23.6107 54.3707H30.2167C33.9866 54.3707 37.0533 51.1889 37.0533 47.2781V40.4246C37.0533 36.5136 33.9864 33.332 30.2167 33.332H23.6107C19.8409 33.332 16.7739 36.5138 16.7739 40.4246V47.2781C16.7739 51.1891 19.8409 54.3707 23.6107 54.3707ZM19.7339 40.4246C19.7339 38.2069 21.473 36.4029 23.6107 36.4029H30.2167C32.3544 36.4029 34.0933 38.2069 34.0933 40.4246V47.2781C34.0933 49.4958 32.3544 51.2999 30.2167 51.2999H23.6107C21.473 51.2999 19.7339 49.4958 19.7339 47.2781V40.4246Z" fill="black"/>
<path d="M93.52 20.157C92.7027 20.157 92.04 20.8445 92.04 21.6924V32.7987C92.04 39.671 86.6507 45.2622 80.0265 45.2622H63.3855C56.7612 45.2622 51.3719 39.671 51.3719 32.7987V15.5344C51.3719 8.66203 56.7612 3.07084 63.3855 3.07084H80.0265C86.6507 3.07084 92.04 8.66203 92.04 15.5508C92.04 16.3987 92.7027 17.078 93.52 17.078C94.3374 17.078 95 16.3823 95 15.5344C95 6.96877 88.2828 0 80.0265 0H63.3855C56.7709 0 51.1481 4.47443 49.1718 10.6579H16.2525C9.49648 10.6579 4 16.3602 4 23.3693V92.1065C4 99.1156 9.49648 104.818 16.2525 104.818H60.2686C67.0247 104.818 72.5211 99.1156 72.5211 92.1065V48.333H80.0265C88.2828 48.333 95 41.3643 95 32.7987V21.6924C95 20.8445 94.3376 20.157 93.52 20.157ZM56.7869 46.7387V47.2791C56.7869 49.4969 55.048 51.3009 52.9103 51.3009H46.3036C44.1659 51.3009 42.4268 49.4969 42.4268 47.2791V40.425C42.4268 38.2072 44.1659 36.403 46.3036 36.403H48.8236C49.8678 40.9448 52.8375 44.7185 56.7869 46.7387ZM69.5611 92.1067C69.5611 97.4225 65.3925 101.747 60.2686 101.747H16.2525C11.1286 101.747 6.95998 97.4225 6.95998 92.1067V23.3693C6.95998 18.0535 11.1286 13.7287 16.2525 13.7287H48.5165C48.45 14.3216 48.4121 14.9233 48.4121 15.5344V23.8596C47.5697 24.5207 46.5479 24.88 45.4778 24.88H31.043C28.3565 24.88 26.1708 22.6125 26.1708 19.8254V19.5244C26.1708 18.6765 25.5082 17.989 24.6908 17.989H18.69C14.4856 17.989 11.0651 21.5367 11.0651 25.8975V89.5765C11.0651 93.9373 14.4856 97.485 18.69 97.485H21.6046C22.4219 97.485 23.0846 96.7975 23.0846 95.9496C23.0846 95.1016 22.4219 94.4141 21.6046 94.4141H18.69C16.1178 94.4141 14.0251 92.2439 14.0251 89.5765V25.8975C14.0251 23.2299 16.1178 21.0599 18.69 21.0599H23.301C23.8759 24.9568 27.1287 27.9508 31.043 27.9508H45.4778C46.4976 27.9508 47.4906 27.7484 48.4121 27.3622V32.7987C48.4121 32.9776 48.4194 33.1547 48.4251 33.3322H46.3034C42.5336 33.3322 39.4667 36.514 39.4667 40.425V47.2791C39.4667 51.1902 42.5336 54.3718 46.3034 54.3718H52.9101C56.4909 54.3718 59.4355 51.5003 59.7218 47.8608C60.6173 48.0954 61.5445 48.2448 62.4955 48.3032V89.5765C62.4955 92.2441 60.402 94.4141 57.8286 94.4141H27.5243C26.707 94.4141 26.0443 95.1016 26.0443 95.9496C26.0443 96.7975 26.707 97.485 27.5243 97.485H57.8286C62.0341 97.485 65.4555 93.9371 65.4555 89.5765V48.333H69.5611V92.1067Z" fill="black"/>
<path d="M37.0533 70.1483V63.2948C37.0533 59.3837 33.9864 56.2021 30.2167 56.2021H23.6107C19.8409 56.2021 16.7739 59.3839 16.7739 63.2948V70.1483C16.7739 74.0593 19.8409 77.2409 23.6107 77.2409H30.2167C33.9864 77.2409 37.0533 74.0593 37.0533 70.1483ZM19.7339 70.1483V63.2948C19.7339 61.077 21.473 59.273 23.6107 59.273H30.2167C32.3544 59.273 34.0933 61.077 34.0933 63.2948V70.1483C34.0933 72.366 32.3544 74.17 30.2167 74.17H23.6107C21.473 74.17 19.7339 72.366 19.7339 70.1483Z" fill="black"/>
<path d="M46.3043 77.2409H52.9106C56.6804 77.2409 59.7471 74.0591 59.7471 70.1483V63.2948C59.7471 59.3837 56.6802 56.2021 52.9106 56.2021H46.3043C42.5345 56.2021 39.4678 59.3839 39.4678 63.2948V70.1483C39.4678 74.0593 42.5345 77.2409 46.3043 77.2409ZM42.4277 63.2948C42.4277 61.077 44.1666 59.273 46.3043 59.273H52.9106C55.0483 59.273 56.7872 61.077 56.7872 63.2948V70.1483C56.7872 72.366 55.0483 74.17 52.9106 74.17H46.3043C44.1666 74.17 42.4277 72.366 42.4277 70.1483V63.2948Z" fill="black"/>
<path d="M65.321 14.4668C64.743 13.8672 63.8058 13.8672 63.2281 14.4668L54.9247 23.0811C54.3467 23.6808 54.3467 24.653 54.9247 25.2524L63.2281 33.8667C63.5169 34.1664 63.8958 34.3165 64.2745 34.3165C64.6532 34.3165 65.0321 34.1666 65.321 33.8667C65.899 33.2671 65.899 32.2949 65.321 31.6954L58.0641 24.1668L65.321 16.6381C65.899 16.0385 65.899 15.0662 65.321 14.4668Z" fill="black"/>
<path d="M78.0907 33.8667C78.6687 34.4663 79.6058 34.4663 80.1836 33.8667L88.487 25.2524C89.065 24.6528 89.065 23.6805 88.487 23.0811L80.1836 14.4668C79.6056 13.8672 78.6685 13.8672 78.0907 14.4668C77.5127 15.0664 77.5127 16.0387 78.0907 16.6381L85.3476 24.1668L78.0907 31.6954C77.5127 32.295 77.5127 33.2673 78.0907 33.8667Z" fill="black"/>
<path d="M73.9445 9.42605L66.3444 38.0917C66.1275 38.9093 66.5909 39.7544 67.3788 39.9794C67.5103 40.0169 67.6423 40.0349 67.7723 40.0349C68.4219 40.0349 69.0179 39.5876 69.1984 38.9063L76.7985 10.2404C77.0153 9.42278 76.552 8.57768 75.7641 8.35269C74.9755 8.1279 74.1613 8.60839 73.9445 9.42605Z" fill="black"/>
</g>
<defs>
<filter id="filter0_d" x="0" y="0" width="99" height="112.818" filterUnits="userSpaceOnUse" color-interpolation-filters="sRGB">
<feFlood flood-opacity="0" result="BackgroundImageFix"/>
<feColorMatrix in="SourceAlpha" type="matrix" values="0 0 0 0 0 0 0 0 0 0 0 0 0 0 0 0 0 0 127 0" result="hardAlpha"/>
<feOffset dy="4"/>
<feGaussianBlur stdDeviation="2"/>
<feComposite in2="hardAlpha" operator="out"/>
<feColorMatrix type="matrix" values="0 0 0 0 0 0 0 0 0 0 0 0 0 0 0 0 0 0 0.25 0"/>
<feBlend mode="normal" in2="BackgroundImageFix" result="effect1_dropShadow"/>
<feBlend mode="normal" in="SourceGraphic" in2="effect1_dropShadow" result="shape"/>
</filter>
</defs>
</svg>
