<svg width="133" height="104" viewBox="0 0 133 104" fill="none" xmlns="http://www.w3.org/2000/svg">
<g filter="url(#filter0_d)">
<path d="M127.169 20.5327H5.83105V9.68608C5.83105 5.40708 9.11011 1.93848 13.1553 1.93848H119.845C123.89 1.93848 127.169 5.40708 127.169 9.68608V20.5327Z" fill="#43809F"/>
<path d="M119.845 1.93848V20.5327H127.169V9.68608C127.169 5.40708 123.89 1.93848 119.845 1.93848Z" fill="#3A7190"/>
<path d="M119.845 93.3588H13.1553C9.11011 93.3588 5.83105 89.8902 5.83105 85.6112V20.5312H127.169V85.6112C127.169 89.8902 123.89 93.3588 119.845 93.3588Z" fill="#F9F6F9"/>
<path d="M119.845 20.5312V93.3588C123.89 93.3588 127.169 89.8902 127.169 85.6112V20.5312H119.845Z" fill="#DDDAEC"/>
<path d="M17.5518 15.2031C19.5743 15.2031 21.2139 13.4688 21.2139 11.3294C21.2139 9.18992 19.5743 7.45557 17.5518 7.45557C15.5292 7.45557 13.8896 9.18992 13.8896 11.3294C13.8896 13.4688 15.5292 15.2031 17.5518 15.2031Z" fill="#29CEF6"/>
<path d="M31.751 15.2031C33.7735 15.2031 35.4131 13.4688 35.4131 11.3294C35.4131 9.18992 33.7735 7.45557 31.751 7.45557C29.7284 7.45557 28.0889 9.18992 28.0889 11.3294C28.0889 13.4688 29.7284 15.2031 31.751 15.2031Z" fill="#F3F3F3"/>
<path d="M45.9492 15.2031C47.9717 15.2031 49.6113 13.4688 49.6113 11.3294C49.6113 9.18992 47.9717 7.45557 45.9492 7.45557C43.9267 7.45557 42.2871 9.18992 42.2871 11.3294C42.2871 13.4688 43.9267 15.2031 45.9492 15.2031Z" fill="#F78E36"/>
<path d="M97.3838 42.1899H85.9092C83.8867 42.1899 82.2471 40.4555 82.2471 38.3161C82.2471 36.1768 83.8867 34.4424 85.9092 34.4424H97.3838C99.4062 34.4424 101.046 36.1768 101.046 38.3161C101.046 40.4555 99.4062 42.1899 97.3838 42.1899Z" fill="#29CEF6"/>
<path d="M116.183 57.6862H85.9092C83.8867 57.6862 82.2471 55.9518 82.2471 53.8124C82.2471 51.6729 83.8867 49.9385 85.9092 49.9385H116.183C118.205 49.9385 119.845 51.6729 119.845 53.8124C119.845 55.9518 118.205 57.6862 116.183 57.6862Z" fill="#FFC328"/>
<path d="M107.19 73.1808H85.9092C83.8867 73.1808 82.2471 71.4463 82.2471 69.3069C82.2471 67.1675 83.8867 65.4331 85.9092 65.4331H107.19C109.212 65.4331 110.852 67.1675 110.852 69.3069C110.852 71.4463 109.212 73.1808 107.19 73.1808Z" fill="#F78E36"/>
<path d="M119.845 0H113.433C112.422 0 111.602 0.866957 111.602 1.9369C111.602 3.00684 112.422 3.8738 113.433 3.8738H119.845C122.874 3.8738 125.338 6.48061 125.338 9.6845V18.5942H7.66211V9.6845C7.66211 6.48061 10.1262 3.8738 13.1553 3.8738H105.394C106.405 3.8738 107.225 3.00684 107.225 1.9369C107.225 0.866957 106.405 0 105.394 0H13.1553C8.10693 0 4 4.34434 4 9.6845V31.0372C4 32.1071 4.81982 32.9741 5.83105 32.9741C6.84229 32.9741 7.66211 32.1071 7.66211 31.0372V22.468H125.338V72.4055C125.338 73.4754 126.157 74.3424 127.169 74.3424C128.18 74.3424 129 73.4754 129 72.4055V9.6845C129 4.34434 124.893 0 119.845 0Z" fill="black"/>
<path d="M127.169 78.6358C126.157 78.6358 125.338 79.5028 125.338 80.5727V85.6102C125.338 88.8141 122.874 91.4209 119.845 91.4209H13.1553C10.1262 91.4209 7.66211 88.8141 7.66211 85.6102V39.3485C7.66211 38.2786 6.84229 37.4116 5.83105 37.4116C4.81982 37.4116 4 38.2786 4 39.3485V85.6102C4 90.9504 8.10693 95.2947 13.1553 95.2947H119.845C124.893 95.2947 129 90.9504 129 85.6102V80.5727C129 79.5031 128.18 78.6358 127.169 78.6358Z" fill="black"/>
<path d="M30.4851 42.0842C29.77 41.328 28.6106 41.328 27.8958 42.0842L16.8923 53.7237C16.5488 54.0871 16.356 54.5796 16.356 55.0935C16.356 55.6074 16.5488 56.0996 16.8923 56.4633L27.7502 67.9488C28.1077 68.3269 28.5764 68.516 29.0449 68.516C29.5134 68.516 29.9822 68.3269 30.3396 67.9488C31.0547 67.1922 31.0547 65.966 30.3396 65.2095L20.7764 55.0937L30.4851 44.8238C31.2004 44.0671 31.2004 42.8409 30.4851 42.0842Z" fill="black"/>
<path d="M55.1091 67.9488C55.4665 68.3269 55.9352 68.516 56.4037 68.516C56.8723 68.516 57.341 68.3269 57.6984 67.9488L68.5566 56.4633C68.8998 56.0999 69.0927 55.6074 69.0927 55.0935C69.0927 54.5796 68.8998 54.0873 68.5566 53.7237L57.5529 42.0842C56.8378 41.328 55.6784 41.328 54.9636 42.0842C54.2485 42.8409 54.2485 44.0671 54.9636 44.8235L64.6725 55.0935L55.1093 65.2093C54.394 65.9662 54.394 67.1924 55.1091 67.9488Z" fill="black"/>
<path d="M36.2242 75.0826C36.9627 75.0826 37.6587 74.6064 37.9363 73.8324L50.9476 37.5742C51.3064 36.574 50.8309 35.4555 49.8855 35.0759C48.9402 34.696 47.8826 35.1994 47.524 36.1993L34.5127 72.458C34.1539 73.458 34.6294 74.5765 35.5747 74.9561C35.7886 75.0421 36.0081 75.0826 36.2242 75.0826Z" fill="black"/>
<path d="M12.0581 11.3293C12.0581 14.5332 14.5222 17.14 17.5513 17.14C20.5803 17.14 23.0444 14.5332 23.0444 11.3293C23.0444 8.12538 20.5803 5.51855 17.5513 5.51855C14.5222 5.51855 12.0581 8.12538 12.0581 11.3293ZM19.3823 11.3293C19.3823 12.3974 18.561 13.2662 17.5513 13.2662C16.5415 13.2662 15.7202 12.3974 15.7202 11.3293C15.7202 10.2612 16.5415 9.39238 17.5513 9.39238C18.561 9.39238 19.3823 10.2612 19.3823 11.3293Z" fill="black"/>
<path d="M26.2573 11.3293C26.2573 14.5332 28.7214 17.14 31.7505 17.14C34.7795 17.14 37.2437 14.5332 37.2437 11.3293C37.2437 8.12538 34.7795 5.51855 31.7505 5.51855C28.7214 5.51855 26.2573 8.12538 26.2573 11.3293ZM33.5815 11.3293C33.5815 12.3974 32.7603 13.2662 31.7505 13.2662C30.7407 13.2662 29.9194 12.3974 29.9194 11.3293C29.9194 10.2612 30.7407 9.39238 31.7505 9.39238C32.7603 9.39238 33.5815 10.2612 33.5815 11.3293Z" fill="black"/>
<path d="M40.4565 11.3293C40.4565 14.5332 42.9207 17.14 45.9497 17.14C48.9788 17.14 51.4429 14.5332 51.4429 11.3293C51.4429 8.12538 48.9788 5.51855 45.9497 5.51855C42.9207 5.51855 40.4565 8.12538 40.4565 11.3293ZM47.7808 11.3293C47.7808 12.3974 46.9595 13.2662 45.9497 13.2662C44.9399 13.2662 44.1187 12.3974 44.1187 11.3293C44.1187 10.2612 44.9399 9.39238 45.9497 9.39238C46.9595 9.39238 47.7808 10.2612 47.7808 11.3293Z" fill="black"/>
<path d="M85.9092 44.1264H97.3838C100.413 44.1264 102.877 41.5195 102.877 38.3156C102.877 35.1117 100.413 32.5049 97.3838 32.5049H85.9092C82.8804 32.5049 80.416 35.1117 80.416 38.3156C80.416 41.5195 82.8804 44.1264 85.9092 44.1264ZM85.9092 36.3787H97.3838C98.3936 36.3787 99.2148 37.2475 99.2148 38.3156C99.2148 39.3838 98.3936 40.2525 97.3838 40.2525H85.9092C84.8994 40.2525 84.0781 39.3838 84.0781 38.3156C84.0781 37.2475 84.8994 36.3787 85.9092 36.3787Z" fill="black"/>
<path d="M85.9092 59.621H116.183C119.211 59.621 121.676 57.0142 121.676 53.8103C121.676 50.6063 119.211 47.9995 116.183 47.9995H85.9092C82.8804 47.9995 80.416 50.6063 80.416 53.8103C80.416 57.0142 82.8804 59.621 85.9092 59.621ZM85.9092 51.8733H116.183C117.192 51.8733 118.014 52.7421 118.014 53.8103C118.014 54.8784 117.192 55.7472 116.183 55.7472H85.9092C84.8994 55.7472 84.0781 54.8784 84.0781 53.8103C84.0781 52.7421 84.8994 51.8733 85.9092 51.8733Z" fill="black"/>
<path d="M85.9092 75.1164H107.19C110.219 75.1164 112.683 72.5096 112.683 69.3058C112.683 66.1019 110.219 63.4951 107.19 63.4951H85.9092C82.8804 63.4951 80.416 66.1019 80.416 69.3058C80.416 72.5096 82.8804 75.1164 85.9092 75.1164ZM85.9092 67.3689H107.19C108.199 67.3689 109.021 68.2376 109.021 69.3058C109.021 70.3739 108.199 71.2427 107.19 71.2427H85.9092C84.8994 71.2427 84.0781 70.3739 84.0781 69.3058C84.0781 68.2376 84.8994 67.3689 85.9092 67.3689Z" fill="black"/>
</g>
<defs>
<filter id="filter0_d" x="0" y="0" width="133" height="103.295" filterUnits="userSpaceOnUse" color-interpolation-filters="sRGB">
<feFlood flood-opacity="0" result="BackgroundImageFix"/>
<feColorMatrix in="SourceAlpha" type="matrix" values="0 0 0 0 0 0 0 0 0 0 0 0 0 0 0 0 0 0 127 0" result="hardAlpha"/>
<feOffset dy="4"/>
<feGaussianBlur stdDeviation="2"/>
<feComposite in2="hardAlpha" operator="out"/>
<feColorMatrix type="matrix" values="0 0 0 0 0 0 0 0 0 0 0 0 0 0 0 0 0 0 0.25 0"/>
<feBlend mode="normal" in2="BackgroundImageFix" result="effect1_dropShadow"/>
<feBlend mode="normal" in="SourceGraphic" in2="effect1_dropShadow" result="shape"/>
</filter>
</defs>
</svg>
