<svg width="329" height="265" viewBox="0 0 329 265" fill="none" xmlns="http://www.w3.org/2000/svg">
<g clip-path="url(#clip0)">
<path d="M65.5511 265C101.754 265 131.102 262.42 131.102 259.236C131.102 256.053 101.754 253.473 65.5511 253.473C29.3482 253.473 0 256.053 0 259.236C0 262.42 29.3482 265 65.5511 265Z" fill="#E6E6E6"/>
<path d="M50.106 58.7985C61.5138 53.1812 75.7225 56.7403 89.5988 59.2104C89.7279 56.2191 91.2931 52.5785 89.6535 50.4915C87.6616 47.9561 87.845 45.2921 89.0437 42.6127C92.1087 35.7611 87.7173 28.4707 83.2833 22.4088C82.284 21.0455 81.0209 19.9744 79.5968 19.2824C78.1727 18.5904 76.6277 18.2971 75.0872 18.4262L66.8736 19.1054C64.8749 19.2706 62.9675 20.1386 61.4066 21.5932C59.8457 23.0478 58.7057 25.0196 58.1392 27.2447C56.1779 30.3327 55.1282 33.4121 55.7891 36.4755C52.8515 38.7996 52.3579 41.6051 53.678 44.7677C54.7974 46.759 54.7854 48.6974 53.6271 50.5821C52.1058 52.985 50.9407 55.6642 50.1794 58.5101L50.106 58.7985Z" fill="#2F2E41"/>
<path d="M321.204 229.088H88.6979C86.6303 229.088 84.6473 228.137 83.1853 226.445C81.7232 224.752 80.9019 222.456 80.9019 220.063C165.185 208.723 247.885 208.723 329 220.063C329 222.456 328.179 224.752 326.717 226.445C325.255 228.137 323.272 229.088 321.204 229.088Z" fill="#2F2E41"/>
<path d="M329 220.594L80.9019 220.063L109.656 164.051L109.793 163.786V40.3439C109.793 38.8455 110.048 37.3619 110.543 35.9776C111.038 34.5933 111.764 33.3355 112.679 32.276C113.595 31.2165 114.681 30.3761 115.877 29.8028C117.072 29.2295 118.354 28.9344 119.648 28.9346H288.878C290.172 28.9344 291.454 29.2295 292.649 29.8028C293.845 30.3761 294.932 31.2165 295.847 32.276C296.762 33.3355 297.488 34.5933 297.983 35.9776C298.478 37.3619 298.733 38.8455 298.733 40.3439V164.635L329 220.594Z" fill="#3F3D56"/>
<path d="M119.424 36.8984C118.572 36.8995 117.756 37.2914 117.155 37.9882C116.553 38.6849 116.214 39.6295 116.213 40.6148V153.168C116.214 154.153 116.553 155.098 117.155 155.795C117.757 156.491 118.572 156.883 119.424 156.884H290.478C291.329 156.883 292.145 156.491 292.747 155.795C293.349 155.098 293.688 154.153 293.689 153.168V40.6148C293.688 39.6295 293.349 38.6849 292.747 37.9882C292.145 37.2915 291.329 36.8996 290.478 36.8984H119.424Z" fill="white"/>
<path d="M120.14 171.75C119.877 171.751 119.62 171.838 119.398 172.002C119.177 172.167 119.001 172.401 118.89 172.677L110.03 194.975C109.934 195.218 109.892 195.485 109.908 195.751C109.924 196.018 109.997 196.275 110.122 196.5C110.246 196.725 110.417 196.91 110.62 197.038C110.822 197.167 111.049 197.234 111.28 197.234H297.599C297.834 197.234 298.064 197.164 298.269 197.032C298.474 196.9 298.646 196.709 298.77 196.478C298.893 196.247 298.963 195.984 298.974 195.713C298.984 195.441 298.935 195.171 298.83 194.929L289.199 172.63C289.086 172.365 288.91 172.142 288.693 171.987C288.475 171.831 288.225 171.749 287.969 171.75H120.14Z" fill="#2F2E41"/>
<path d="M204.263 35.0399C205.403 35.0399 206.327 33.9703 206.327 32.6508C206.327 31.3314 205.403 30.2617 204.263 30.2617C203.123 30.2617 202.199 31.3314 202.199 32.6508C202.199 33.9703 203.123 35.0399 204.263 35.0399Z" fill="white"/>
<path d="M185.949 201.48C185.647 201.481 185.353 201.597 185.113 201.81C184.873 202.022 184.7 202.321 184.621 202.659L182.398 212.215C182.344 212.451 182.336 212.699 182.377 212.939C182.418 213.179 182.506 213.404 182.635 213.598C182.763 213.792 182.929 213.95 183.118 214.058C183.307 214.166 183.516 214.222 183.727 214.222H225.992C226.212 214.222 226.428 214.162 226.623 214.045C226.818 213.929 226.986 213.76 227.113 213.553C227.24 213.347 227.323 213.107 227.354 212.856C227.385 212.605 227.364 212.348 227.292 212.109L224.435 202.552C224.341 202.239 224.165 201.968 223.932 201.776C223.699 201.584 223.421 201.481 223.135 201.48H185.949Z" fill="#2F2E41"/>
<path d="M298.733 161.928V164.051H109.655L109.798 163.786V161.928H298.733Z" fill="#2F2E41"/>
<path d="M293 70C312.33 70 328 54.33 328 35C328 15.67 312.33 0 293 0C273.67 0 258 15.67 258 35C258 54.33 273.67 70 293 70Z" fill="#6D6BEF"/>
<path d="M306.758 53.3565H280.16C279.674 53.356 279.207 53.1321 278.863 52.7339C278.52 52.3358 278.326 51.7959 278.326 51.2329V32.651C278.326 32.0879 278.52 31.5481 278.864 31.15C279.207 30.7519 279.674 30.5279 280.16 30.5273H306.758C307.245 30.5279 307.711 30.7519 308.055 31.15C308.399 31.5481 308.592 32.0879 308.593 32.651V51.2329C308.592 51.7959 308.399 52.3358 308.055 52.7339C307.711 53.1321 307.245 53.356 306.758 53.3565ZM280.16 32.651V51.2329H306.76L306.758 32.651L280.16 32.651Z" fill="white"/>
<path d="M301.714 32.6509H285.205V24.1563C285.205 18.0037 288.676 13.5381 293.459 13.5381C298.242 13.5381 301.714 18.0037 301.714 24.1563L301.714 32.6509ZM287.039 30.5273H299.88V24.1563C299.88 19.1549 297.24 15.6617 293.459 15.6617C289.679 15.6617 287.039 19.1549 287.039 24.1563L287.039 30.5273Z" fill="white"/>
<path d="M293.459 43.5344C294.472 43.5344 295.294 42.5836 295.294 41.4107C295.294 40.2379 294.472 39.2871 293.459 39.2871C292.446 39.2871 291.625 40.2379 291.625 41.4107C291.625 42.5836 292.446 43.5344 293.459 43.5344Z" fill="white"/>
<path d="M271.05 118.707H138.852C138.203 118.706 137.581 118.408 137.122 117.876C136.663 117.345 136.405 116.625 136.404 115.873V77.9093C136.405 77.158 136.663 76.4376 137.122 75.9063C137.581 75.375 138.203 75.0761 138.852 75.0752H271.05C271.699 75.0761 272.321 75.375 272.78 75.9063C273.239 76.4376 273.497 77.158 273.498 77.9093V115.873C273.497 116.625 273.239 117.345 272.78 117.876C272.321 118.408 271.699 118.706 271.05 118.707ZM138.852 76.2089C138.463 76.2094 138.09 76.3887 137.814 76.7075C137.539 77.0263 137.384 77.4585 137.384 77.9094V115.873C137.384 116.324 137.539 116.756 137.814 117.075C138.09 117.394 138.463 117.573 138.852 117.574H271.05C271.439 117.573 271.813 117.394 272.088 117.075C272.363 116.756 272.518 116.324 272.519 115.873V77.9093C272.518 77.4585 272.363 77.0263 272.088 76.7075C271.813 76.3887 271.439 76.2093 271.05 76.2089L138.852 76.2089Z" fill="#E6E6E6"/>
<path d="M159.393 106.979C164.9 106.979 169.365 101.811 169.365 95.4345C169.365 89.0585 164.9 83.8896 159.393 83.8896C153.885 83.8896 149.42 89.0585 149.42 95.4345C149.42 101.811 153.885 106.979 159.393 106.979Z" fill="#E6E6E6"/>
<path d="M182.424 87.7383C182.206 87.7379 181.99 87.7873 181.788 87.8839C181.586 87.9804 181.402 88.1221 181.247 88.3008C181.093 88.4795 180.97 88.6917 180.887 88.9254C180.803 89.159 180.76 89.4095 180.76 89.6624C180.76 89.9154 180.803 90.1658 180.887 90.3995C180.97 90.6331 181.093 90.8454 181.247 91.0241C181.402 91.2028 181.586 91.3444 181.788 91.441C181.99 91.5375 182.206 91.587 182.424 91.5866H260.778C261.219 91.5866 261.641 91.3838 261.953 91.023C262.265 90.6621 262.44 90.1727 262.44 89.6624C262.44 89.1521 262.265 88.6627 261.953 88.3018C261.641 87.941 261.219 87.7383 260.778 87.7383H182.424Z" fill="#E6E6E6"/>
<path d="M182.424 99.2832C181.983 99.2832 181.561 99.4859 181.249 99.8468C180.937 100.208 180.762 100.697 180.762 101.207C180.762 101.718 180.937 102.207 181.249 102.568C181.561 102.929 181.983 103.131 182.424 103.131H216.14C216.581 103.131 217.003 102.929 217.315 102.568C217.627 102.207 217.802 101.718 217.802 101.207C217.802 100.697 217.627 100.208 217.315 99.8468C217.003 99.4859 216.581 99.2832 216.14 99.2832H182.424Z" fill="#E6E6E6"/>
<path d="M109.33 100.061L84.8923 115.102L84.583 102.568C92.5593 101.026 100.148 98.3424 107.165 93.973L109.721 86.6627C109.999 85.8661 110.452 85.1671 111.034 84.6342C111.616 84.1013 112.308 83.7529 113.042 83.6232C113.776 83.4935 114.526 83.5869 115.219 83.8943C115.913 84.2016 116.525 84.7124 116.996 85.3765C117.685 86.348 118.03 87.5866 117.96 88.8413C117.89 90.096 117.411 91.273 116.619 92.1338L109.33 100.061Z" fill="#FFB8B8"/>
<path d="M49.6188 186.903C49.4405 186.146 49.4027 185.354 49.5078 184.579C49.6128 183.804 49.8584 183.063 50.2284 182.406L55.5967 172.868C56.8664 170.612 58.8147 168.983 61.0635 168.296C63.3124 167.609 65.7014 167.914 67.7672 169.151C65.5111 173.597 65.8256 177.497 68.5464 180.887C64.3227 183.274 60.419 186.355 56.9562 190.034C56.3241 190.533 55.5981 190.85 54.8388 190.958C54.0794 191.066 53.3087 190.963 52.5909 190.657C51.873 190.35 51.2288 189.85 50.7118 189.197C50.1948 188.544 49.8201 187.758 49.6188 186.903Z" fill="#2F2E41"/>
<path d="M110.443 174.432C109.631 176 108.484 177.299 107.113 178.206C105.742 179.112 104.193 179.596 102.614 179.609L66.951 179.922L65.4043 169.537L81.1805 164.165L67.879 152.347L82.4179 132.65L108.825 161.144C110.368 162.81 111.371 165.038 111.666 167.457C111.96 169.875 111.529 172.338 110.443 174.432Z" fill="#2F2E41"/>
<path d="M61.3827 245.458H53.0305C45.5315 185.95 37.8983 126.274 60.4546 104.001L87.0577 109.015L83.655 135.157L68.8068 154.854L61.3827 245.458Z" fill="#2F2E41"/>
<path d="M68.7248 258.939C68.071 259.145 67.3868 259.189 66.7172 259.068C66.0477 258.946 65.408 258.662 64.8402 258.234L55.7715 256.822C53.8228 255.353 52.4152 253.097 51.8218 250.494C51.2283 247.89 51.4914 245.124 52.5599 242.733C56.4004 245.344 59.7693 244.98 62.6969 241.83C64.7655 246.665 68.1737 246.371 71.4287 250.444C71.8597 251.176 72.1334 252.017 72.227 252.896C72.3206 253.775 72.2315 254.667 71.9669 255.498C71.7024 256.329 71.2701 257.075 70.7062 257.674C70.1422 258.272 69.4629 258.706 68.7248 258.939Z" fill="#2F2E41"/>
<path d="M81.1803 64.2494L65.7134 59.9519C68.2822 53.8646 68.4937 47.0911 67.2601 39.8972L77.7776 39.5391C78.1071 48.485 79.1041 56.8427 81.1803 64.2494Z" fill="#FFB8B8"/>
<path d="M85.4311 119.797C74.1718 128.679 66.2162 120.101 60.1453 106.865C60.9889 98.7663 59.6229 89.0744 57.0931 78.5433C55.968 73.8984 56.3881 68.9339 58.2703 64.63C60.1526 60.3261 63.3602 56.9955 67.26 55.2959L80.5616 61.7421C91.8561 72.4003 94.0792 83.9452 89.8417 96.1216L85.4311 119.797Z" fill="#6D6BEF"/>
<path d="M53.0304 73.2024L40.6569 80.723L62.6199 95.764L65.6759 104.491C65.8798 105.073 65.9792 105.698 65.9679 106.326C65.9566 106.955 65.8349 107.574 65.6101 108.146C65.3854 108.718 65.0624 109.231 64.6607 109.654C64.2591 110.077 63.7873 110.401 63.274 110.606C62.6906 110.839 62.0685 110.912 61.4565 110.82C60.8445 110.728 60.2592 110.474 59.7463 110.076C59.2335 109.679 58.8072 109.149 58.5006 108.529C58.1941 107.909 58.0157 107.215 57.9795 106.502L57.6705 100.42L29.7557 89.755C28.8152 89.3957 27.9577 88.7933 27.248 87.9935C26.5384 87.1937 25.9952 86.2174 25.6598 85.1386C25.1708 83.5661 25.1459 81.8502 25.589 80.2596C26.0321 78.6689 26.9182 77.2932 28.1087 76.3477L50.5557 58.5195L53.0304 73.2024Z" fill="#FFB8B8"/>
<path d="M65.4039 74.6345C60.2434 72.0163 55.5508 74.8604 49.6277 77.1413L48.6997 58.1609C54.5811 54.5319 60.1886 53.5535 65.404 56.3704L65.4039 74.6345Z" fill="#6D6BEF"/>
<path d="M71.5772 48.9408C77.031 48.9408 81.4522 43.8223 81.4522 37.5085C81.4522 31.1946 77.031 26.0762 71.5772 26.0762C66.1233 26.0762 61.7021 31.1946 61.7021 37.5085C61.7021 43.8223 66.1233 48.9408 71.5772 48.9408Z" fill="#FFB8B8"/>
<path d="M83.391 36.0659C73.6139 37.1745 66.1638 35.3233 61.4023 30.0524V25.8076H82.5612L83.391 36.0659Z" fill="#2F2E41"/>
</g>
<defs>
<clipPath id="clip0">
<rect width="329" height="265" fill="white"/>
</clipPath>
</defs>
</svg>
